<?xml version="1.0" standalone="no"?>
<!DOCTYPE svg PUBLIC "-//W3C//DTD SVG 20010904//EN"
 "http://www.w3.org/TR/2001/REC-SVG-20010904/DTD/svg10.dtd">
<svg version="1.0" xmlns="http://www.w3.org/2000/svg"
 width="512.000000pt" height="512.000000pt" viewBox="0 0 512.000000 512.000000"
 preserveAspectRatio="xMidYMid meet">
<metadata>
Created by potrace 1.11, written by Peter Selinger 2001-2013
</metadata>
<g transform="translate(0.000000,512.000000) scale(0.100000,-0.100000)"
fill="#000000" stroke="none">
<path d="M2022 4788 c-49 -8 -137 -48 -167 -75 -97 -88 -126 -163 -130 -333
-2 -69 -4 -130 -4 -135 -1 -7 -236 -11 -728 -11 -515 -1 -740 -4 -769 -12 -96
-27 -188 -122 -213 -219 -8 -28 -10 -258 -9 -730 l3 -688 28 -54 c16 -29 44
-68 63 -85 l34 -31 1 -920 c0 -901 1 -921 21 -973 23 -62 95 -140 150 -166 20
-9 56 -20 80 -24 68 -13 4357 -7 4395 6 46 15 118 67 148 107 15 18 35 57 46
85 18 48 19 86 19 968 l0 917 40 39 c21 21 49 59 62 85 l23 46 0 710 0 710
-24 49 c-41 84 -126 152 -211 171 -19 5 -358 9 -752 9 -394 1 -720 4 -724 9
-4 4 -8 64 -9 135 -3 143 -19 201 -76 275 -45 59 -81 86 -152 115 l-62 26
-520 1 c-286 0 -539 -2 -563 -7z m1049 -319 c16 -16 18 -34 18 -127 l-1 -107
-527 0 -526 0 0 113 c0 101 2 115 20 128 16 12 97 14 509 13 460 -2 490 -3
507 -20z m1784 -454 c61 -30 59 -6 60 -708 0 -353 -4 -655 -8 -672 -5 -16 -21
-39 -35 -50 -27 -20 -43 -20 -2314 -20 l-2288 0 -32 32 -32 33 0 659 c0 720
-2 696 58 725 28 14 280 16 2294 16 2022 0 2267 -2 2297 -15z m-2805 -1742 l0
-83 33 0 33 0 0 -227 c1 -155 5 -240 13 -266 17 -51 82 -114 131 -127 44 -12
530 -15 576 -4 49 12 104 57 130 106 23 46 24 52 24 283 l0 235 40 0 39 0 3
83 3 82 855 0 855 0 1 -860 c0 -473 -4 -873 -8 -890 -4 -16 -20 -40 -35 -52
l-28 -23 -2148 0 c-2334 0 -2188 -4 -2219 53 -9 17 -13 219 -13 892 -1 479 0
872 1 875 1 3 388 6 858 6 l856 0 0 -83z"/>
</g>
</svg>
